PathFileType	4	(X/Y/Z)	C:/Users/opensim2020/Desktop/walking_exp_matlab/subject03_walking12_straight_03.trc	
DataRate	CameraRate	NumFrames	NumMarkers	Units	OrigDataRate	OrigDataStartFrame	OrigNumFrames	
100.00	100.00	9	48	mm	100.00	1774	185	
Frame#	Time	LFHD			RFHD			LBHD			RBHD			C7			T10			CLAV			STRN			RBAK			LSHO			LUPA			LELB			LFRM			LWRA			LWRB			LFIN			RSHO			RUPA			RELB			RFRM			RWRA			RWRB			RFIN			LASI			RASI			LPSI			RPSI			LTHI			LKNE			LTIB			LANK			LHEE			LTOE			RTHI			RKNE			RTIB			RANK			RHEE			RTOE			*39			*40			*41			*42			*43			*44			*45			*46			*47			
		X1	Y1	Z1	X2	Y2	Z2	X3	Y3	Z3	X4	Y4	Z4	X5	Y5	Z5	X6	Y6	Z6	X7	Y7	Z7	X8	Y8	Z8	X9	Y9	Z9	X10	Y10	Z10	X11	Y11	Z11	X12	Y12	Z12	X13	Y13	Z13	X14	Y14	Z14	X15	Y15	Z15	X16	Y16	Z16	X17	Y17	Z17	X18	Y18	Z18	X19	Y19	Z19	X20	Y20	Z20	X21	Y21	Z21	X22	Y22	Z22	X23	Y23	Z23	X24	Y24	Z24	X25	Y25	Z25	X26	Y26	Z26	X27	Y27	Z27	X28	Y28	Z28	X29	Y29	Z29	X30	Y30	Z30	X31	Y31	Z31	X32	Y32	Z32	X33	Y33	Z33	X34	Y34	Z34	X35	Y35	Z35	X36	Y36	Z36	X37	Y37	Z37	X38	Y38	Z38	X39	Y39	Z39	X40	Y40	Z40	X41	Y41	Z41	X42	Y42	Z42	X43	Y43	Z43	X44	Y44	Z44	X45	Y45	Z45	X46	Y46	Z46	X47	Y47	Z47	X48	Y48	Z48	

116	1.150	-1049.95105	358.72839	1620.90747	-921.78918	323.36563	1618.54590	-1082.05286	235.64967	1575.97925	-954.97150	205.38356	1572.76025	-1033.59766	198.38503	1405.90369	-1028.38489	180.78116	1093.28955	-1009.25159	321.69077	1338.06506	-1007.29321	378.36462	1176.44617	-949.41217	141.54964	1225.68127	-1170.20239	299.41714	1373.09192	-1245.60022	341.59821	1184.64404	-1258.22839	382.93002	1068.99121	-1247.20947	449.13977	956.93793	-1208.47607	499.39685	851.88263	-1262.80359	487.70428	850.39716	-1247.93152	531.51837	780.74237	-861.27008	241.78841	1359.22705	-791.65735	226.94426	1136.73743	-777.74628	237.83612	1024.13599	-774.30988	248.67844	887.43988	-804.16309	282.07739	791.08630	-767.40985	242.77695	786.79810	-773.84906	264.42694	714.94232	-1130.41174	351.12369	937.97559	-894.85968	331.97003	930.44849	-1092.09302	186.75232	962.80536	-943.91821	175.92024	958.32916	-1177.39380	284.08655	636.59717	-1139.99585	267.50391	460.00122	-1148.69897	176.26434	279.92160	-1111.20728	106.21257	80.51015	-1077.87671	56.54811	53.12690	-1076.85254	249.10014	28.68100	-855.70435	353.55722	640.33057	-884.55304	439.20016	482.17545	-891.82825	385.67313	295.51843	-945.40033	336.82605	87.58397	-1002.51422	293.26294	59.05656	-948.24274	467.29901	42.36788																											 
117	1.160	-1048.66589	371.95468	1620.44104	-920.49335	336.52200	1617.67603	-1080.94629	248.79359	1575.75488	-953.90131	218.53400	1572.20715	-1032.88892	211.37186	1405.55579	-1027.83484	193.31360	1092.86792	-1008.72369	334.47900	1337.47998	-1007.45203	391.08243	1175.83765	-949.16895	154.48015	1225.12146	-1169.33521	312.18002	1373.02454	-1244.52759	357.78000	1186.03979	-1256.92480	401.50589	1071.32922	-1245.21655	471.09998	961.63123	-1205.37207	525.10834	858.89594	-1259.47278	513.27258	856.19788	-1243.80542	559.39838	788.15057	-860.67804	254.70059	1358.42676	-791.52405	237.01503	1136.13940	-777.96405	246.38179	1023.33966	-774.86938	255.02101	886.46710	-804.87445	286.89270	789.71240	-768.32007	247.38774	785.89142	-775.13696	268.02924	713.63220	-1131.09839	362.74323	937.32465	-895.31006	345.92218	930.35736	-1091.09021	198.86641	962.08472	-943.02521	189.22728	957.80737	-1176.89624	291.19849	636.59351	-1140.05164	271.47903	460.28000	-1148.51453	178.42534	281.08560	-1111.09302	106.76701	82.09323	-1077.73206	57.06285	55.16214	-1076.87878	249.25032	28.76964	-854.97217	368.63351	640.78851	-884.61029	454.15152	482.71652	-890.79919	411.94827	292.90631	-943.99530	378.42560	81.67431	-1001.18677	336.96429	50.83380	-946.92737	511.63040	43.74478	-1018.57275	276.87897	1679.10168																								 
118	1.170	-1047.35303	385.21237	1619.72913	-919.25818	349.71222	1616.57935	-1079.80334	262.02899	1575.26318	-952.80859	231.59593	1571.32910	-1032.07458	224.39046	1405.02344	-1027.11414	205.83270	1092.21265	-1008.21881	347.41425	1336.67773	-1007.58044	403.77960	1174.93433	-948.63745	167.40750	1224.50635	-1168.43555	324.85883	1372.64758	-1243.40710	373.70456	1187.28577	-1255.50891	419.85876	1073.55640	-1243.09302	492.76263	966.25812	-1202.19214	550.19714	865.94379	-1256.15979	538.44641	862.04999	-1239.58411	586.78687	795.75793	-860.01379	267.85599	1357.79138	-791.30347	247.44069	1135.41333	-778.10425	255.11099	1022.43481	-775.44995	261.62015	885.42059	-805.72498	291.94800	788.24341	-769.25232	252.34996	784.89777	-776.23938	271.75583	712.25800	-1131.80090	374.58710	936.34424	-895.62885	360.07001	929.99103	-1090.10522	211.12587	960.97803	-942.03540	202.68834	956.92944	-1176.46179	298.40479	636.49359	-1140.05103	275.62201	460.25186	-1148.21228	180.80142	282.22327	-1110.96655	107.42092	83.74397	-1077.50281	57.53835	57.35849	-1076.84949	249.25262	28.56626	-854.42432	382.87366	640.61792	-884.60132	468.62762	482.62903	-889.64148	437.69504	290.62128	-942.21338	419.72275	77.15711	-999.23468	379.93237	44.35800	-945.62408	555.07837	45.93946	-1017.35992	290.25711	1678.36731																								 
119	1.180	-1045.99255	398.46231	1618.83740	-917.87970	362.80551	1615.28516	-1078.68091	275.28067	1574.52808	-951.73853	244.81596	1570.14819	-1031.19373	237.44296	1404.21619	-1026.19165	218.38959	1091.34290	-1007.72479	360.45068	1335.63550	-1007.75134	416.47034	1173.77808	-947.91205	180.46172	1223.70703	-1167.57043	337.56393	1372.08826	-1242.27234	389.34641	1188.25903	-1254.13660	437.98169	1075.56445	-1240.87732	513.99927	970.76105	-1198.84375	574.70422	873.02020	-1252.72705	563.01794	867.91052	-1235.33350	613.65338	803.52936	-859.32507	281.41769	1356.40393	-790.99835	258.10648	1134.51172	-778.17755	264.20190	1021.25287	-775.92212	268.91644	884.16364	-806.61096	297.42407	786.74225	-770.23431	257.85608	783.57648	-777.51019	276.01825	710.94666	-1132.17310	386.60345	935.45355	-895.82794	374.33206	929.33417	-1088.97119	223.49782	959.58160	-940.71045	215.94850	955.84583	-1176.44214	305.72079	636.28101	-1139.89294	280.23441	460.27484	-1147.80286	183.41565	283.32672	-1110.62915	108.18792	85.53892	-1077.09778	58.12108	59.57332	-1076.86853	249.36508	28.54177	-853.27991	396.73138	639.81512	-884.70685	482.46848	481.97293	-888.46179	462.82260	288.77829	-939.97522	459.97003	74.14778	-996.94788	422.30148	39.49865	-943.95490	597.32544	49.03204	-1015.96106	303.66507	1677.37842																								 
120	1.190	-1044.57666	411.71536	1617.75037	-916.64618	375.98959	1613.67712	-1077.50757	288.58484	1573.58667	-950.63037	257.98376	1568.79199	-1030.22437	250.58897	1403.13232	-1025.05566	231.02701	1090.26648	-1007.16394	373.56323	1334.31763	-1007.98541	429.29599	1172.36572	-946.94366	193.63918	1222.75952	-1166.62793	350.20309	1371.28125	-1241.20544	404.81503	1189.00806	-1252.81335	455.78650	1077.34790	-1238.63696	534.77655	975.13629	-1195.43884	598.57306	879.98547	-1249.26904	587.21057	873.82770	-1230.96680	639.96075	811.42560	-858.52301	295.16684	1355.14587	-790.55115	269.12741	1133.44702	-778.27942	273.30283	1019.94818	-776.49744	275.83884	882.77405	-807.43652	303.03506	785.04260	-771.08942	263.18085	782.60547	-778.69861	280.56241	709.41077	-1132.34448	398.83646	934.31415	-895.99988	388.76340	928.36230	-1087.62659	236.04457	957.99377	-939.41718	229.76649	954.31805	-1175.89819	313.49515	635.94336	-1139.86267	285.07968	459.70172	-1147.31897	186.32164	284.47021	-1109.83875	109.06503	87.22025	-1076.58972	58.85007	61.92915	-1076.84058	249.42264	28.50307	-852.00647	410.14374	638.37555	-885.10986	496.03464	480.73712	-887.15271	487.33578	287.46362	-937.10004	498.81348	72.60902	-994.11243	463.08844	36.53556	-941.62903	637.81598	53.52530	-1014.91156	317.08566	1676.64490																								 
121	1.200	-1043.19714	425.01520	1616.43079	-915.43756	388.98712	1611.78088	-1076.40527	301.91370	1572.37915	-949.63513	271.18405	1567.15784	-1029.13220	263.78979	1401.84985	-1023.86780	243.84383	1089.01636	-1006.60773	386.78955	1332.80286	-1008.15137	442.28891	1170.72327	-945.83575	206.99814	1221.58472	-1165.65210	362.83334	1370.21411	-1240.20483	420.02948	1189.53088	-1251.48718	473.15402	1078.90417	-1236.34131	555.07434	979.33868	-1191.95520	621.82037	886.89587	-1245.66504	610.86053	879.72559	-1226.55298	665.74396	819.49323	-857.69391	309.23941	1353.49341	-790.08765	280.50754	1132.18811	-778.14636	282.98676	1018.50781	-776.89862	283.50577	881.28680	-807.43616	310.07742	783.63855	-771.71594	269.17010	781.33240	-779.61847	285.58386	707.98297	-1133.15747	410.46429	932.56158	-896.02704	403.24576	927.07806	-1086.09790	248.66266	956.27643	-937.90704	243.73373	952.46399	-1175.95203	321.54419	635.56757	-1139.51343	290.74542	459.89844	-1146.83936	189.47670	285.58121	-1109.58215	109.76484	89.31361	-1075.87195	59.32328	64.57815	-1076.93921	249.32126	28.33947	-850.84705	422.99249	636.35681	-885.64655	509.46561	479.11343	-885.76331	511.02847	286.84592	-933.41388	535.48340	72.65603	-990.35626	501.88705	34.52497	-938.60809	676.07843	59.63636	-1012.96106	330.06946	1675.18665																								 
122	1.210	-1041.74707	438.29163	1614.88989	-914.18079	402.00677	1609.75684	-1075.29773	315.22247	1570.91882	-948.47742	284.35220	1565.32446	-1027.95374	277.06677	1400.25391	-1022.47723	256.85373	1087.39917	-1006.06317	400.14087	1331.02527	-1008.22363	455.42258	1168.92554	-944.49750	220.46028	1220.18079	-1164.64600	375.47324	1368.89795	-1239.23242	434.93716	1189.66333	-1250.31018	490.11835	1080.10803	-1234.09509	574.87274	983.35779	-1188.42639	644.39185	893.68854	-1242.16565	634.00012	885.63995	-1222.13721	690.87823	827.65741	-856.80237	323.36069	1351.85168	-789.55554	292.24854	1130.73840	-777.88916	293.05710	1016.97095	-777.13025	291.41254	879.69128	-809.66205	314.81268	781.34216	-772.32404	275.73413	779.95752	-781.03308	290.38324	706.26324	-1133.33484	422.92798	930.83405	-895.98737	417.87122	925.54181	-1084.34448	261.45450	954.31653	-936.18591	257.84818	950.42126	-1175.72571	330.07056	634.91553	-1139.31165	296.64081	459.44504	-1146.30200	193.00168	286.62030	-1108.98438	110.69595	91.27879	-1075.24170	59.73938	67.50520	-1076.87415	249.39357	28.30070	-849.63275	435.57230	633.97345	-886.24963	523.14374	477.29782	-884.26477	533.69525	286.98441	-929.63837	570.02167	73.53340	-985.83197	537.87531	33.54602	-935.33942	711.76154	66.57063																											 
123	1.220	-1040.36646	451.61652	1613.23584	-912.79303	415.14539	1607.75073	-1074.14746	328.63589	1569.23364	-947.43414	297.60449	1563.31726	-1026.73645	290.35501	1398.44373	-1021.00049	270.04773	1085.51099	-1005.42242	413.58200	1329.10681	-1008.21735	468.75034	1166.97412	-943.08997	234.08977	1218.49451	-1163.64197	388.10141	1367.35681	-1238.38440	449.58530	1189.45215	-1249.23962	506.63782	1081.01184	-1231.92432	594.09619	987.20850	-1184.92896	666.27264	900.42322	-1238.61194	656.48090	891.43402	-1217.71912	715.29169	835.81543	-855.82129	337.52145	1349.91016	-788.93719	304.39059	1129.13635	-777.64954	303.48965	1015.22729	-777.36774	299.73969	877.99048	-810.35065	321.40747	779.38397	-772.77020	282.58923	778.42468	-782.04150	295.86395	704.44000	-1133.27893	435.42865	929.01495	-895.86578	432.54547	923.75995	-1082.49194	274.28537	952.19897	-934.24426	272.17038	948.16876	-1175.09363	339.14056	633.95013	-1139.04407	303.25400	458.82843	-1145.80273	196.96777	287.54001	-1108.50293	111.85005	93.36467	-1074.77026	61.09047	69.95469	-1076.70276	249.60248	28.34477	-848.05438	447.97031	630.86469	-886.70642	537.35400	475.71619	-882.70172	555.50104	287.72253	-925.53815	601.77362	75.52431	-981.43848	571.29340	33.65834	-932.32574	744.43079	73.26639	-1010.04828	356.68744	1671.17151																								 
124	1.230	-1038.94519	464.95911	1611.46692	-911.45105	428.30368	1605.70349	-1072.99622	342.02487	1567.39587	-946.34973	310.78677	1561.17957	-1025.42114	303.65924	1396.45349	-1019.50293	283.50122	1083.45105	-1004.75317	427.08054	1327.12988	-1008.13916	482.24295	1164.98767	-941.61444	247.90646	1216.49817	-1162.59583	400.73926	1365.61096	-1237.58777	463.88458	1188.95911	-1248.28418	522.70703	1081.51733	-1229.83325	612.79108	990.81378	-1181.41785	687.46039	906.96411	-1235.08875	678.36823	897.18939	-1213.34399	738.98285	844.01672	-854.78406	351.82150	1347.89819	-788.29108	316.87592	1127.32166	-777.34204	314.39972	1013.38922	-777.48669	308.63330	876.22809	-810.97595	328.41638	777.27319	-773.03436	289.83054	776.88153	-783.23090	301.86050	702.60077	-1133.29810	448.11826	926.93915	-895.78967	447.35883	921.73779	-1080.40295	287.11826	950.08942	-932.12878	286.72717	945.88507	-1174.99097	348.65887	632.85822	-1138.83020	310.56543	458.04312	-1145.32922	201.50140	288.39838	-1107.90405	113.18407	95.45190	-1074.45264	61.71232	73.43233	-1076.72449	249.51685	28.13019	-846.32068	460.67355	627.83899	-886.76520	552.26282	474.62799	-881.09399	576.53204	288.50812	-922.33752	630.73175	77.55232	-977.48169	600.84863	34.24120	-930.02417	773.65527	79.05362																											 
